<svg xmlns="http://www.w3.org/2000/svg" width="480" height="320" viewBox="0 0 480 320">
<rect width="480" height="320" fill="#ffffff"/>
<path d="M24 276 H456" stroke="#c8d4d8" stroke-width="5"/>
<circle data-role="front-wheel" cx="345" cy="250" r="48" fill="none" stroke="#1f2d33" stroke-width="9"/>
<circle data-role="rear-wheel" cx="137" cy="288" r="48" fill="none" stroke="#1f2d33" stroke-width="9"/>
<path data-role="frame" d="M137 250 L227 250 L297 182 L345 250 L227 250 L189 186" fill="none" stroke="#f08b3e" stroke-width="10" stroke-linejoin="round"/>
<path data-role="handlebar" d="M297 182 L326 143 L352 143" fill="none" stroke="#1f2d33" stroke-width="8" stroke-linecap="round"/>
<circle data-role="pedal" cx="227" cy="250" r="13" fill="#f08b3e" stroke="#1f2d33" stroke-width="5"/>
<path data-role="frame-brace" d="M189 186 L297 182" stroke="#f08b3e" stroke-width="10"/>
<ellipse data-role="animal body pelican" cx="215" cy="126" rx="70" ry="49" fill="#e7ecef" stroke="#1f2d33" stroke-width="6"/>
<circle data-role="animal head" cx="275" cy="86" r="34" fill="#e7ecef" stroke="#1f2d33" stroke-width="6"/>
<path data-role="bill" d="M303 77 L410 94 L305 104 Z" fill="#f08b3e" stroke="#1f2d33" stroke-width="5"/>
<circle data-role="eye" cx="285" cy="77" r="5" fill="#1f2d33"/>
<path data-role="gular pouch" d="M304 103 Q355 149 402 96 Q350 121 304 103 Z" fill="#f2aa72" stroke="#1f2d33" stroke-width="4"/>
<path data-role="wing" d="M183 113 Q220 86 251 131 Q212 159 183 113 Z" fill="#a9cbd0" stroke="#1f2d33" stroke-width="5"/>
<path data-role="foot pedal contact" d="M207 162 L217 203 L262 242" fill="none" stroke="#1f2d33" stroke-width="8" stroke-linecap="round"/>
<path data-role="riding grip contact" d="M249 131 Q291 133 331 146" fill="none" stroke="#1f2d33" stroke-width="8" stroke-linecap="round"/>
</svg>
