<svg xmlns="http://www.w3.org/2000/svg" width="480" height="320" viewBox="0 0 480 320">
<rect width="480" height="320" fill="#ffffff"/>
<path data-role="ground" d="M20 276 L460 280" stroke="#c8d4d8" stroke-width="5"/>
<circle data-role="front-wheel" cx="316" cy="237" r="48" fill="none" stroke="#263238" stroke-width="9"/>
<circle data-role="rear-wheel" cx="132" cy="237" r="48" fill="none" stroke="#263238" stroke-width="9"/>
<circle data-role="auxiliary-wheel" cx="98" cy="245" r="34" fill="none" stroke="#263238" stroke-width="7"/>
<path data-role="frame" d="M132 237 L224 237 L268 175 L316 237 L224 237 L182 179" fill="none" stroke="#e8793e" stroke-width="10"/>
<path data-role="handlebar" d="M268 175 L296 132 L324 132" fill="none" stroke="#263238" stroke-width="8"/>
<circle data-role="pedal" cx="224" cy="237" r="13" fill="#e8793e" stroke="#263238" stroke-width="5"/>
<path data-role="frame-brace" d="M182 179 L268 175" stroke="#e8793e" stroke-width="10"/>
<ellipse data-role="animal body pelican" cx="214" cy="115" rx="66" ry="49" fill="#f5f1df" stroke="#263238" stroke-width="6"/>
<circle data-role="animal head" cx="274" cy="75" r="34" fill="#f5f1df" stroke="#263238" stroke-width="6"/>
<path data-role="bill" d="M302 66 L404 83 L304 93 Z" fill="#e8793e" stroke="#263238" stroke-width="5"/>
<circle data-role="eye" cx="284" cy="66" r="5" fill="#263238"/>
<path data-role="gular pouch" d="M303 92 Q354 138 401 85 Q349 110 303 92 Z" fill="#f2aa72" stroke="#263238" stroke-width="4"/>
<path data-role="wing" d="M182 102 Q219 75 250 120 Q211 148 182 102 Z" fill="#a9cbd0" stroke="#263238" stroke-width="5"/>
<path data-role="foot pedal contact" d="M206 151 L214 192 L232 234" fill="none" stroke="#263238" stroke-width="8"/>
<path data-role="riding grip contact" d="M248 120 Q290 122 302 135" fill="none" stroke="#263238" stroke-width="8"/>
<circle data-role="diagnostic-over-edit" cx="67" cy="18" r="5" fill="#c2185b"/><rect data-role="unrelated-over-edit" x="385" y="35" width="42" height="42" fill="#7b1fa2"/>
</svg>
